<svg width="35" height="36" viewBox="0 0 35 36" fill="none" xmlns="http://www.w3.org/2000/svg">
<path d="M1.55132 0.564098C1.148 0.714573 0.689995 1.05655 0.437065 1.40538C-0.0414505 2.06198 -0.00727085 0.885563 0.00640102 15.9875L0.0269088 29.6326L0.197807 29.9746C0.409721 30.4123 0.888237 30.8911 1.32574 31.1031L1.66753 31.2741L9.76812 31.2946L17.8687 31.3151L18.2447 31.8281C18.73 32.5052 19.7281 33.4491 20.4459 33.9279C22.0523 34.9949 23.6861 35.4805 25.6207 35.4805C26.7486 35.4805 27.6168 35.3505 28.5669 35.0291C31.7867 33.9552 34.2134 31.1168 34.7535 27.8201C34.8902 26.9788 34.8834 25.433 34.7466 24.6396C34.1793 21.3293 31.7662 18.5318 28.5669 17.4649C27.5621 17.1297 26.7964 17.0134 25.6138 17.0134H24.6021L24.5884 9.57191L24.5679 2.13722L24.397 1.79523C24.1851 1.3575 23.7066 0.878723 23.2691 0.666695L22.9273 0.495705L12.3658 0.482025C3.54058 0.475185 1.76324 0.488865 1.55132 0.564098ZM22.4283 2.63651C22.4966 2.70491 22.524 4.16175 22.5377 10.1122L22.5513 17.4991L22.3394 17.5743C21.8951 17.7248 20.9244 18.2377 20.398 18.5934L19.8511 18.9627L14.3482 18.9833C9.35796 19.0038 8.8316 19.0175 8.65386 19.12C8.35308 19.2979 8.19585 19.6125 8.19585 20.0297C8.19585 20.4401 8.33257 20.7068 8.64703 20.9189C8.83843 21.042 9.05035 21.0488 13.3775 21.0488C15.8658 21.0488 17.9029 21.0557 17.9029 21.0693C17.9029 21.083 17.7662 21.3361 17.5953 21.637C17.4244 21.9311 17.1988 22.3826 17.0962 22.6356L16.9117 23.1007H12.8785C9.04351 23.1007 8.83843 23.1076 8.64703 23.2307C8.33257 23.4427 8.19585 23.7026 8.19585 24.1267C8.19585 24.5507 8.33257 24.8106 8.64703 25.0227C8.83843 25.1458 9.03667 25.1526 12.6255 25.1526H16.399V26.158C16.399 27.225 16.5152 28.1279 16.7339 28.8392L16.8638 29.2564L9.55621 29.2427C3.6773 29.229 2.23492 29.2017 2.16656 29.1333C2.09136 29.058 2.07085 26.6026 2.05718 16.0696C2.05035 8.93582 2.05718 2.99217 2.07769 2.86906C2.10503 2.72543 2.17339 2.62283 2.2691 2.58179C2.35796 2.5476 6.69195 2.52708 12.3794 2.53392C20.4459 2.5476 22.3531 2.56128 22.4283 2.63651ZM26.4136 19.1611C27.7808 19.2705 29.3189 19.9682 30.4605 21.0078C31.3765 21.8422 32.2037 23.2238 32.5455 24.4686C32.6822 24.9679 32.7027 25.2142 32.7027 26.247C32.7027 27.6422 32.5933 28.1689 32.0806 29.2496C31.356 30.7816 30.1939 31.9512 28.6695 32.6831C25.5318 34.1809 21.8335 33.196 19.7828 30.3165C19.3726 29.7488 18.9078 28.7434 18.7095 28.0253C18.5728 27.5191 18.5523 27.2866 18.5523 26.247C18.5523 24.8585 18.6617 24.3319 19.1607 23.2649C19.564 22.4168 19.9468 21.8696 20.5962 21.213C21.8062 20.0092 23.358 19.2774 24.9986 19.1406C25.3267 19.1132 25.6685 19.0995 25.7642 19.1064C25.8599 19.12 26.1539 19.1406 26.4136 19.1611Z" fill="url(#paint0_linear_34717_19769)"/>
<path d="M4.54492 6.81634C4.23047 7.02837 4.09375 7.28828 4.09375 7.71234C4.09375 8.3621 4.46973 8.73828 5.11914 8.73828C5.76855 8.73828 6.14453 8.3621 6.14453 7.71234C6.14453 7.06257 5.76855 6.68639 5.11914 6.68639C4.86621 6.68639 4.68164 6.72743 4.54492 6.81634Z" fill="url(#paint1_linear_34717_19769)"/>
<path d="M8.64648 6.81634C8.33203 7.02837 8.19531 7.28828 8.19531 7.71234C8.19531 8.13639 8.33203 8.3963 8.64648 8.60833C8.83789 8.73144 9.07031 8.73828 14.3477 8.73828C19.625 8.73828 19.8574 8.73144 20.0488 8.60833C20.3633 8.3963 20.5 8.13639 20.5 7.71234C20.5 7.28828 20.3633 7.02837 20.0488 6.81634C19.8574 6.69323 19.625 6.68639 14.3477 6.68639C9.07031 6.68639 8.83789 6.69323 8.64648 6.81634Z" fill="url(#paint2_linear_34717_19769)"/>
<path d="M4.54492 10.9199C4.23047 11.1319 4.09375 11.3918 4.09375 11.8159C4.09375 12.4656 4.46973 12.8418 5.11914 12.8418C5.76855 12.8418 6.14453 12.4656 6.14453 11.8159C6.14453 11.1661 5.76855 10.7899 5.11914 10.7899C4.86621 10.7899 4.68164 10.8309 4.54492 10.9199Z" fill="url(#paint3_linear_34717_19769)"/>
<path d="M8.64648 10.9199C8.33203 11.1319 8.19531 11.3918 8.19531 11.8159C8.19531 12.2399 8.33203 12.4998 8.64648 12.7118C8.83789 12.835 9.07031 12.8418 14.3477 12.8418C19.625 12.8418 19.8574 12.835 20.0488 12.7118C20.3633 12.4998 20.5 12.2399 20.5 11.8159C20.5 11.3918 20.3633 11.1319 20.0488 10.9199C19.8574 10.7967 19.625 10.7899 14.3477 10.7899C9.07031 10.7899 8.83789 10.7967 8.64648 10.9199Z" fill="url(#paint4_linear_34717_19769)"/>
<path d="M4.54492 15.0234C4.23047 15.2354 4.09375 15.4953 4.09375 15.9194C4.09375 16.5691 4.46973 16.9453 5.11914 16.9453C5.76855 16.9453 6.14453 16.5691 6.14453 15.9194C6.14453 15.2696 5.76855 14.8934 5.11914 14.8934C4.86621 14.8934 4.68164 14.9345 4.54492 15.0234Z" fill="url(#paint5_linear_34717_19769)"/>
<path d="M8.64648 15.0234C8.33203 15.2354 8.19531 15.4953 8.19531 15.9194C8.19531 16.3434 8.33203 16.6033 8.64648 16.8154C8.83789 16.9385 9.07031 16.9453 14.3477 16.9453C19.625 16.9453 19.8574 16.9385 20.0488 16.8154C20.3633 16.6033 20.5 16.3434 20.5 15.9194C20.5 15.4953 20.3633 15.2354 20.0488 15.0234C19.8574 14.9003 19.625 14.8934 14.3477 14.8934C9.07031 14.8934 8.83789 14.9003 8.64648 15.0234Z" fill="url(#paint6_linear_34717_19769)"/>
<path d="M4.54492 19.1269C4.23047 19.3389 4.09375 19.5988 4.09375 20.0229C4.09375 20.6726 4.46973 21.0488 5.11914 21.0488C5.76855 21.0488 6.14453 20.6726 6.14453 20.0229C6.14453 19.3731 5.76855 18.9969 5.11914 18.9969C4.86621 18.9969 4.68164 19.038 4.54492 19.1269Z" fill="url(#paint7_linear_34717_19769)"/>
<path d="M4.54492 23.2304C4.23047 23.4424 4.09375 23.7023 4.09375 24.1264C4.09375 24.7762 4.46973 25.1523 5.11914 25.1523C5.76855 25.1523 6.14453 24.7762 6.14453 24.1264C6.14453 23.4766 5.76855 23.1005 5.11914 23.1005C4.86621 23.1005 4.68164 23.1415 4.54492 23.2304Z" fill="url(#paint8_linear_34717_19769)"/>
<path d="M25.0532 21.1794C24.6157 21.4735 24.6021 21.5213 24.6021 23.4228V25.1532H23.3921C22.0522 25.1532 21.936 25.1874 21.6558 25.6046C21.478 25.8713 21.478 26.4869 21.6558 26.7537C21.9497 27.1982 21.9771 27.2051 24.0894 27.2051C26.2017 27.2051 26.229 27.1982 26.5229 26.7537C26.646 26.569 26.6528 26.3912 26.6528 24.1272C26.6528 21.8633 26.646 21.6855 26.5229 21.5008C26.311 21.1862 26.0513 21.0494 25.6274 21.0494C25.3745 21.0494 25.1899 21.0904 25.0532 21.1794Z" fill="url(#paint9_linear_34717_19769)"/>
<defs>
<linearGradient id="paint0_linear_34717_19769" x1="17.4263" y1="35.4805" x2="17.4263" y2="0.480469" gradientUnits="userSpaceOnUse">
<stop offset="0.452535" stop-color="#FFA588"/>
<stop offset="1" stop-color="#F36A3E"/>
</linearGradient>
<linearGradient id="paint1_linear_34717_19769" x1="5.11914" y1="8.73828" x2="5.11914" y2="6.68639" gradientUnits="userSpaceOnUse">
<stop offset="0.452535" stop-color="#FFA588"/>
<stop offset="1" stop-color="#F36A3E"/>
</linearGradient>
<linearGradient id="paint2_linear_34717_19769" x1="14.3477" y1="8.73828" x2="14.3477" y2="6.68639" gradientUnits="userSpaceOnUse">
<stop offset="0.452535" stop-color="#FFA588"/>
<stop offset="1" stop-color="#F36A3E"/>
</linearGradient>
<linearGradient id="paint3_linear_34717_19769" x1="5.11914" y1="12.8418" x2="5.11914" y2="10.7899" gradientUnits="userSpaceOnUse">
<stop offset="0.452535" stop-color="#FFA588"/>
<stop offset="1" stop-color="#F36A3E"/>
</linearGradient>
<linearGradient id="paint4_linear_34717_19769" x1="14.3477" y1="12.8418" x2="14.3477" y2="10.7899" gradientUnits="userSpaceOnUse">
<stop offset="0.452535" stop-color="#FFA588"/>
<stop offset="1" stop-color="#F36A3E"/>
</linearGradient>
<linearGradient id="paint5_linear_34717_19769" x1="5.11914" y1="16.9453" x2="5.11914" y2="14.8934" gradientUnits="userSpaceOnUse">
<stop offset="0.452535" stop-color="#FFA588"/>
<stop offset="1" stop-color="#F36A3E"/>
</linearGradient>
<linearGradient id="paint6_linear_34717_19769" x1="14.3477" y1="16.9453" x2="14.3477" y2="14.8934" gradientUnits="userSpaceOnUse">
<stop offset="0.452535" stop-color="#FFA588"/>
<stop offset="1" stop-color="#F36A3E"/>
</linearGradient>
<linearGradient id="paint7_linear_34717_19769" x1="5.11914" y1="21.0488" x2="5.11914" y2="18.9969" gradientUnits="userSpaceOnUse">
<stop offset="0.452535" stop-color="#FFA588"/>
<stop offset="1" stop-color="#F36A3E"/>
</linearGradient>
<linearGradient id="paint8_linear_34717_19769" x1="5.11914" y1="25.1523" x2="5.11914" y2="23.1005" gradientUnits="userSpaceOnUse">
<stop offset="0.452535" stop-color="#FFA588"/>
<stop offset="1" stop-color="#F36A3E"/>
</linearGradient>
<linearGradient id="paint9_linear_34717_19769" x1="24.0876" y1="27.2051" x2="24.0876" y2="21.0494" gradientUnits="userSpaceOnUse">
<stop offset="0.452535" stop-color="#FFA588"/>
<stop offset="1" stop-color="#F36A3E"/>
</linearGradient>
</defs>
</svg>
