<svg width="35" height="36" viewBox="0 0 35 36" fill="none" xmlns="http://www.w3.org/2000/svg">
<path d="M2.02474 0.506931C1.21074 0.801067 0.60879 1.34829 0.218891 2.14177L0 2.59324V17.8814V33.1696L0.218891 33.621C0.615631 34.435 1.23126 34.9754 2.05894 35.2559C2.45568 35.3927 2.65405 35.3927 17.6139 35.379L32.7652 35.3585L33.244 35.1259C33.8734 34.8181 34.4137 34.2777 34.7216 33.6484L34.9541 33.1696V17.8814V2.59324L34.7216 2.11441C34.4137 1.4851 33.8734 0.944714 33.244 0.636898L32.7652 0.404327L17.5797 0.390648C2.7293 0.376965 2.38728 0.376965 2.02474 0.506931ZM32.389 2.60692C32.519 2.689 32.69 2.86001 32.7652 2.98314C32.8952 3.19519 32.902 3.35251 32.9226 5.89028L32.9431 8.57854H17.4771H2.01106L2.03158 5.89028C2.0521 3.26359 2.0521 3.20203 2.20259 2.96946C2.36676 2.70268 2.56513 2.55904 2.87294 2.48379C2.98923 2.45643 9.61752 2.44275 17.6139 2.44275L32.1496 2.45643L32.389 2.60692ZM32.9226 21.5889C32.902 32.4171 32.902 32.5539 32.7652 32.7797C32.69 32.9028 32.519 33.0738 32.389 33.1559L32.1496 33.3064H17.4771H2.80454L2.56513 33.1559C2.43516 33.0738 2.26415 32.9028 2.18891 32.7797C2.0521 32.5539 2.0521 32.4171 2.03158 21.5889L2.0179 10.6306H17.4771H32.9362L32.9226 21.5889Z" fill="url(#paint0_linear_34717_19760)"/>
<path d="M6.64189 4.60521C6.32724 4.81726 6.19043 5.07719 6.19043 5.50129C6.19043 6.15113 6.56665 6.52734 7.21648 6.52734C7.86631 6.52734 8.24253 6.15113 8.24253 5.50129C8.24253 4.85146 7.86631 4.47524 7.21648 4.47524C6.96339 4.47524 6.7787 4.51628 6.64189 4.60521Z" fill="url(#paint1_linear_34717_19760)"/>
<path d="M10.7464 4.60521C10.4317 4.81726 10.2949 5.07719 10.2949 5.50129C10.2949 6.15113 10.6711 6.52734 11.321 6.52734C11.9708 6.52734 12.347 6.15113 12.347 5.50129C12.347 4.85146 11.9708 4.47524 11.321 4.47524C11.0679 4.47524 10.8832 4.51628 10.7464 4.60521Z" fill="url(#paint2_linear_34717_19760)"/>
<path d="M14.8504 4.60521C14.5357 4.81726 14.3989 5.07719 14.3989 5.50129C14.3989 6.15113 14.7751 6.52734 15.425 6.52734C16.0748 6.52734 16.451 6.15113 16.451 5.50129C16.451 4.85146 16.0748 4.47524 15.425 4.47524C15.1719 4.47524 14.9872 4.51628 14.8504 4.60521Z" fill="url(#paint3_linear_34717_19760)"/>
<path d="M6.64189 12.8121C6.53929 12.8805 6.3888 13.031 6.3204 13.1336C6.19727 13.3183 6.19043 13.5167 6.19043 16.8206C6.19043 20.1245 6.19727 20.3228 6.3204 20.5075C6.3888 20.6101 6.53929 20.7606 6.64189 20.829C6.83342 20.9521 7.17544 20.959 17.5112 20.959C27.8469 20.959 28.189 20.9521 28.3805 20.829C28.4831 20.7606 28.6336 20.6101 28.702 20.5075C28.8251 20.3228 28.832 20.1245 28.832 16.8206C28.832 13.5167 28.8251 13.3183 28.702 13.1336C28.6336 13.031 28.4831 12.8805 28.3805 12.8121C28.189 12.689 27.8469 12.6822 17.5112 12.6822C7.17544 12.6822 6.83342 12.689 6.64189 12.8121ZM26.7799 16.8206V18.9069H17.5112H8.24253V16.8206V14.7343H17.5112H26.7799V16.8206Z" fill="url(#paint4_linear_34717_19760)"/>
<path d="M6.64189 23.1422C6.53929 23.2106 6.3888 23.3611 6.3204 23.4637C6.19727 23.6484 6.19043 23.8468 6.19043 27.1507C6.19043 30.4545 6.19727 30.6529 6.3204 30.8376C6.3888 30.9402 6.53929 31.0907 6.64189 31.1591C6.83342 31.2822 7.06599 31.2891 12.3467 31.2891C17.6275 31.2891 17.86 31.2822 18.0516 31.1591C18.1542 31.0907 18.3047 30.9402 18.3731 30.8376C18.4962 30.6529 18.503 30.4545 18.503 27.1507C18.503 23.8468 18.4962 23.6484 18.3731 23.4637C18.3047 23.3611 18.1542 23.2106 18.0516 23.1422C17.86 23.0191 17.6275 23.0123 12.3467 23.0123C7.06599 23.0123 6.83342 23.0191 6.64189 23.1422ZM16.4509 27.1507V29.237H12.3467H8.24253V27.1507V25.0644H12.3467H16.4509V27.1507Z" fill="url(#paint5_linear_34717_19760)"/>
<path d="M21.0066 23.1422C20.904 23.2106 20.7535 23.3611 20.6851 23.4637C20.562 23.6484 20.5552 23.8468 20.5552 27.1507C20.5552 30.4545 20.562 30.6529 20.6851 30.8376C20.7535 30.9402 20.904 31.0907 21.0066 31.1591C21.1913 31.2822 21.3897 31.2891 24.6936 31.2891C27.9975 31.2891 28.1958 31.2822 28.3805 31.1591C28.4831 31.0907 28.6336 30.9402 28.702 30.8376C28.8251 30.6529 28.832 30.4545 28.832 27.1507C28.832 23.8468 28.8251 23.6484 28.702 23.4637C28.6336 23.3611 28.4831 23.2106 28.3805 23.1422C28.1958 23.0191 27.9975 23.0123 24.6936 23.0123C21.3897 23.0123 21.1913 23.0191 21.0066 23.1422ZM26.7799 27.1507V29.237H24.6936H22.6073V27.1507V25.0644H24.6936H26.7799V27.1507Z" fill="url(#paint6_linear_34717_19760)"/>
<defs>
<linearGradient id="paint0_linear_34717_19760" x1="17.4771" y1="35.3848" x2="17.4771" y2="0.384766" gradientUnits="userSpaceOnUse">
<stop offset="0.452535" stop-color="#FFA588"/>
<stop offset="1" stop-color="#F36A3E"/>
</linearGradient>
<linearGradient id="paint1_linear_34717_19760" x1="7.21648" y1="6.52734" x2="7.21648" y2="4.47524" gradientUnits="userSpaceOnUse">
<stop offset="0.452535" stop-color="#FFA588"/>
<stop offset="1" stop-color="#F36A3E"/>
</linearGradient>
<linearGradient id="paint2_linear_34717_19760" x1="11.321" y1="6.52734" x2="11.321" y2="4.47524" gradientUnits="userSpaceOnUse">
<stop offset="0.452535" stop-color="#FFA588"/>
<stop offset="1" stop-color="#F36A3E"/>
</linearGradient>
<linearGradient id="paint3_linear_34717_19760" x1="15.425" y1="6.52734" x2="15.425" y2="4.47524" gradientUnits="userSpaceOnUse">
<stop offset="0.452535" stop-color="#FFA588"/>
<stop offset="1" stop-color="#F36A3E"/>
</linearGradient>
<linearGradient id="paint4_linear_34717_19760" x1="17.5112" y1="20.959" x2="17.5112" y2="12.6822" gradientUnits="userSpaceOnUse">
<stop offset="0.452535" stop-color="#FFA588"/>
<stop offset="1" stop-color="#F36A3E"/>
</linearGradient>
<linearGradient id="paint5_linear_34717_19760" x1="12.3467" y1="31.2891" x2="12.3467" y2="23.0123" gradientUnits="userSpaceOnUse">
<stop offset="0.452535" stop-color="#FFA588"/>
<stop offset="1" stop-color="#F36A3E"/>
</linearGradient>
<linearGradient id="paint6_linear_34717_19760" x1="24.6936" y1="31.2891" x2="24.6936" y2="23.0123" gradientUnits="userSpaceOnUse">
<stop offset="0.452535" stop-color="#FFA588"/>
<stop offset="1" stop-color="#F36A3E"/>
</linearGradient>
</defs>
</svg>
